<?xml version="1.0" encoding="utf-8"?>
<!-- Generator: Adobe Illustrator 19.0.0, SVG Export Plug-In . SVG Version: 6.00 Build 0)  -->
<svg version="1.1"   xmlns="http://www.w3.org/2000/svg" xmlns:xlink="http://www.w3.org/1999/xlink" x="0px" y="0px"
	 viewBox="0 0 900 600" style="enable-background:new 0 0 900 600;" xml:space="preserve">
<style type="text/css">
	.st0{fill:#F2F2F2;}
	.st1{fill:none;}
	.st2{fill:#D1D1D1;}
</style>
<rect id="XMLID_1_" class="st0" width="900" height="600"/>
<g id="XMLID_2_">
	<rect id="XMLID_3_" x="381" y="256.4" class="st1" width="137.6" height="87.7"/>
	<path class="st2" d="M386.4,339.4c-0.1,0-0.1,0-0.2,0c-0.4,0.4-0.4,3,0.1,3.5h0.1V339.4z M440.2,343c0.5-0.6,0.7-3,0.4-3.5
		c-2.4-0.3-4-0.8-5.7-1.7c-0.6-0.3-1-1.2-1-2.1c-0.1-3.8,0-13.7,0-20.3c0-5.4-0.7-10-3-13.4c-2.6-3.8-6.3-6-11.2-6
		c-3.7,0-9.1,2.4-14.5,6.7v3.7c2.1-1.7,5.1-2.6,7.4-2.6c2.7,0,4.4,0.7,6.1,2c2.1,1.5,3,4,3.3,6c0.6,4.4,0.4,17.7,0.4,23
		c-0.1,2.4-0.4,3.4-2.1,3.9c-0.7,0.2-2,0.5-3.7,0.8c-0.6,0.4-0.4,3,0,3.5c3.2-0.1,6-0.4,11.8-0.4C435.1,342.6,438.5,343,440.2,343
		 M473.2,315.6c-0.1-0.3-0.2-0.5,0-0.6c2.8-3.2,7-7.4,10.2-10.6c2.6-2.5,5.2-3.3,9.5-4.1c0.4-0.5,0.4-3.3,0-3.6
		c-5.1,0.6-14,0.9-22.4,0.9c-0.4,0.4-0.7,2.9-0.4,3.5c1.1,0.1,4,0.4,5.3,0.8c1.4,0.4,1.8,1.1,1.6,1.9c-0.2,1.8-5.7,8.3-9.8,11.7
		c-1.8,1.5-3.5,2.4-5.2,2.7c0-20.9,0-31.2,0.2-39.1c0.1-6.9,0.4-9.5,1.3-11c0-0.4-0.4-1.6-0.7-1.7c-3.8,1.5-12.4,3-19.2,3.5
		c-0.4,0.4-0.5,2.7-0.1,3.2c2.1,0.2,4,0.5,5.2,1c1.3,0.4,1.8,1.6,1.8,3.2c0.4,2.5,0.4,10,0.4,37.2c0,5.3,0,16.8-0.2,20
		c-0.2,2.6-0.7,3.6-2.5,4.1c-1.1,0.4-2.3,0.6-3.9,0.8c-0.6,0.4-0.6,3.1,0,3.5c2.4,0,6-0.4,12.2-0.4c6,0,10,0.4,12.4,0.4
		c0.7-0.4,0.9-3,0.5-3.5c-1.6-0.2-3-0.6-4.1-0.8c-2.1-0.5-2.9-1.3-3-4.7c-0.1-4.1-0.1-7.5-0.1-13c1.7,0.2,2.7,1.3,3.5,2.6
		c4.5,6,10.2,14.6,13.4,17.4c1,1.1,3.2,2.3,6,2.4c4.1,0,10.9,0,12.9-0.4c0.6-0.4,0.9-3.2,0.4-3.5c-4.2-0.2-5.5-0.3-7.8-2.4
		C486.3,333.4,475.6,320,473.2,315.6"/>
	<rect id="XMLID_4_" x="381" y="256.4" class="st1" width="137.6" height="87.7"/>
	<path class="st2" d="M406.5,340.6c-2.5-0.4-3.5-0.7-4.7-1c-1.5-0.5-2.1-1.6-2.1-4.2c-0.1-5.2-0.1-12.8-0.1-18.8
		c0-6.6,0.1-14.7,0.1-19.6c-5.1,2-14.2,3.5-17.3,3.6c-0.4,0.4-0.7,2.6-0.4,3c2.6,1,4,1.6,5,2.7c0.7,0.7,0.8,1.8,0.8,2.6
		c0.1,2.1,0.1,6.4,0.1,10.6c0,5.8,0,13.1-0.1,15.8c-0.1,2.7-0.4,3.7-2.1,4.2c-1.3,0.4-2.6,0.7-4.5,1c-0.4,0.4-0.4,3.1,0,3.5
		c2.2,0,6.6-0.4,12.1-0.4c6.4,0,10.3,0.4,12.5,0.4C406.5,343.7,406.7,341,406.5,340.6 M399.7,281.7c0-1-0.4-2.8-1.1-3.8
		c-0.4-0.4-2-1.2-4.3-1.2c-2.4,0-5.5,1.1-6.8,2.4c-0.8,0.7-0.8,3.4-0.6,4.3c0.5,2.4,1.5,4.1,3.3,5c1,0.4,5.9,0,6.6-0.6
		C398.5,286.5,399.7,284,399.7,281.7"/>
	<rect id="XMLID_8_" x="381" y="256.4" class="st1" width="137.6" height="87.7"/>
	<path class="st2" d="M512.9,343.7c3.2,0,5.8-2.6,5.8-5.8c0-3.2-2.6-5.8-5.8-5.8s-5.8,2.6-5.8,5.8
		C507.1,341.2,509.7,343.7,512.9,343.7"/>
	<g id="XMLID_11_">
		<polygon id="XMLID_12_" class="st2" points="435.9,272.5 382.9,272.5 382.9,266.8 383.4,266.8 383.4,272 435.4,272 435.4,266.4 
			435.9,266.4 		"/>
	</g>
	<path class="st2" d="M426.2,268.1v-0.3c-0.6-0.1-0.6-0.1-0.6-0.8v-1.9c0-1-0.5-1.5-1.3-1.5c-0.3,0-0.6,0.1-0.8,0.3
		c-0.3,0.2-0.5,0.3-0.7,0.5v-0.8c-0.4,0.2-0.9,0.3-1.4,0.4v0.2c0.5,0.1,0.6,0.1,0.6,0.8v2.1c0,0.7,0,0.7-0.7,0.8v0.3h2.2v-0.3
		c-0.6-0.1-0.7-0.1-0.7-0.8v-2.4c0.3-0.3,0.7-0.5,1.1-0.5c0.7,0,0.9,0.4,0.9,1.1v1.7c0,0.7-0.1,0.8-0.7,0.8v0.3L426.2,268.1
		L426.2,268.1z M420.8,268.1v-0.3c-0.6-0.1-0.7-0.1-0.7-0.8v-3.5c-0.4,0.2-0.9,0.3-1.4,0.4v0.2c0.6,0.1,0.6,0.1,0.6,0.8v2.1
		c0,0.7-0.1,0.7-0.7,0.8v0.3H420.8L420.8,268.1z M419.6,262.7c0.3,0,0.5-0.2,0.5-0.5s-0.2-0.5-0.5-0.5s-0.5,0.2-0.5,0.5
		S419.4,262.7,419.6,262.7 M416.7,267.3c-0.2,0.2-0.5,0.4-0.8,0.4s-0.7-0.3-0.7-0.8c0-0.4,0.2-0.5,0.6-0.7c0.2-0.1,0.7-0.3,0.9-0.4
		V267.3z M418.3,267.7l-0.1-0.3c-0.1,0.1-0.2,0.1-0.4,0.1c-0.2,0-0.4-0.1-0.4-0.6V265c0-0.5-0.1-0.9-0.4-1.2
		c-0.2-0.2-0.5-0.3-0.8-0.3c-0.6,0.1-1.2,0.5-1.5,0.7c-0.2,0.1-0.3,0.3-0.3,0.4c0,0.2,0.3,0.4,0.4,0.4s0.3-0.1,0.3-0.2
		c0.1-0.3,0.2-0.5,0.3-0.7c0.1-0.1,0.3-0.2,0.5-0.2c0.5,0,0.8,0.4,0.8,1.1v0.2c-0.2,0.2-1,0.4-1.6,0.6c-0.5,0.2-0.8,0.5-0.8,1
		c0,0.6,0.5,1.2,1.2,1.2c0.3,0,0.8-0.4,1.2-0.6c0,0.2,0.1,0.3,0.2,0.4s0.3,0.2,0.5,0.2L418.3,267.7z M413.8,267.7l-0.1-0.3
		c-0.1,0.1-0.4,0.2-0.6,0.2s-0.6-0.2-0.6-1V264h1.1c0.1-0.1,0.1-0.3,0.1-0.4h-1.1v-1.4h-0.1l-0.6,0.7v0.7h-0.5L411,264v0.1h0.7v2.9
		c0,0.8,0.3,1.2,1,1.2c0.1,0,0.3,0,0.4-0.1L413.8,267.7z M410.8,268.1v-0.3c-0.6-0.1-0.6-0.1-0.6-0.8v-1.9c0-1-0.5-1.5-1.3-1.5
		c-0.3,0-0.6,0.1-0.8,0.3c-0.3,0.2-0.5,0.3-0.7,0.5v-0.8c-0.4,0.2-0.9,0.3-1.4,0.4v0.2c0.5,0.1,0.6,0.1,0.6,0.8v2.1
		c0,0.7,0,0.7-0.7,0.8v0.3h2.2v-0.3c-0.6-0.1-0.6-0.1-0.6-0.8v-2.4c0.3-0.3,0.7-0.5,1.1-0.5c0.7,0,0.9,0.4,0.9,1.1v1.7
		c0,0.7-0.1,0.8-0.7,0.8v0.3L410.8,268.1L410.8,268.1z M405.5,267.6h-0.3c-0.4,0-0.5-0.1-0.5-0.6v-3.3c-0.5,0.1-1,0.1-1.6,0.2v0.2
		c0.7,0.1,0.8,0.1,0.8,0.7v2.3c-0.3,0.3-0.7,0.5-1.1,0.5c-0.5,0-0.9-0.2-0.9-1.1v-1.3c0-0.7,0-1.1,0-1.5c-0.5,0.1-1,0.1-1.4,0.2v0.2
		c0.6,0.1,0.6,0.1,0.6,0.7v2c0,1.1,0.6,1.5,1.2,1.5c0.3,0,0.5-0.1,0.8-0.3c0.3-0.2,0.5-0.4,0.7-0.5v0.7l0.1,0.1
		c0.5-0.1,1-0.3,1.5-0.4L405.5,267.6L405.5,267.6z M397.7,263.9c0.9,0,1.3,0.9,1.3,2.1c0,1.4-0.5,1.8-1.1,1.8
		c-0.8,0-1.4-0.9-1.4-2.2C396.6,264.6,397.1,263.9,397.7,263.9 M397.8,263.6c-0.9,0-2.2,0.7-2.2,2.4c0,1.1,0.8,2.2,2.2,2.2
		c1,0,2.2-0.8,2.2-2.4C400,264.6,399.1,263.6,397.8,263.6 M393,263.7l-0.3,0.3v0.1h0.7v3c0,0.7-0.1,0.7-0.7,0.8v0.3h2.4V268
		c-0.8-0.1-0.9-0.1-0.9-0.9v-2.9h1.1c0.1-0.1,0.2-0.3,0.1-0.4h-1.2v-0.4c0-0.9,0.1-1.3,0.2-1.5s0.3-0.3,0.5-0.3
		c0.3,0,0.6,0.2,0.8,0.4c0.1,0.1,0.2,0.1,0.3,0c0.1-0.1,0.2-0.2,0.2-0.2c0.1-0.1,0-0.2,0-0.4c-0.2-0.2-0.5-0.3-0.8-0.3
		c-0.4,0.1-0.8,0.2-1.1,0.5c-0.5,0.5-0.7,1-0.8,1.2c-0.1,0.2-0.1,0.5-0.1,0.8v0.2H393V263.7z"/>
	<g id="XMLID_13_">
		<polygon id="XMLID_25_" class="st2" points="383.4,262.8 382.9,262.8 382.9,256.4 435.9,256.4 435.9,262.5 435.4,262.5 
			435.4,256.9 383.4,256.9 		"/>
	</g>
</g>
</svg>
